#N canvas 286 2086 1759 1086 12;
#X declare -path Abstractions;
#X obj 43 53 declare -path Abstractions;
#X obj 40 221 soundfiler;
#N canvas 130 130 450 250 (subpatch) 0;
#X array audioData1 384000 float 2;
#X coords 0 1 384000 -1 200 140 1;
#X restore 44 469 graph;
#X obj 40 166 message2symbol;
#X obj 957 877 dac~;
#X obj 40 112 r bang_bass;
#X obj 140 112 bng 19 250 50 0 empty empty empty 0 -10 0 12 #fcfcfc #000000 #000000;
#X obj 590 252 soundfiler;
#N canvas 0 50 450 250 (subpatch) 0;
#X array audioData2 22050 float 2;
#X coords 0 1 22050 -1 200 140 1 0 0;
#X restore 591 310 graph;
#X obj 590 183 message2symbol;
#X obj 687 110 bng 19 250 50 0 empty empty empty 0 -10 0 12 #fcfcfc #000000 #000000;
#X msg 592 216 read -resize \$1 audioData2;
#X obj 590 109 r bang_kick;
#X obj 691 256 tabplay~ audioData2, f 17;
#N canvas 0 50 450 250 (subpatch) 0;
#X array audioData3 192000 float 2;
#X coords 0 1 192000 -1 200 140 1 0 0;
#X restore 1099 315 graph;
#X obj 1098 188 message2symbol;
#X obj 1317 231 bng 19 250 50 0 empty empty empty 0 -10 0 12 #fcfcfc #000000 #000000;
#X obj 1230 114 bng 19 250 50 0 empty empty empty 0 -10 0 12 #fcfcfc #000000 #000000;
#X msg 1100 221 read -resize \$1 audioData3;
#X obj 1201 259 tabplay~ audioData3, f 17;
#X msg 1098 141 ../../../Comp2AudioAssets/MainDrumLoop.wav;
#X obj 1099 257 soundfiler;
#X obj 1098 114 r bang_drum_loop;
#N canvas 0 50 450 250 (subpatch) 0;
#X array audioData4 69017 float 2;
#X coords 0 1 69017 -1 200 140 1 0 0;
#X restore 1424 314 graph;
#X obj 1423 187 message2symbol;
#X obj 1555 114 bng 19 250 50 0 empty empty empty 0 -10 0 12 #fcfcfc #000000 #000000;
#X obj 1424 256 soundfiler;
#X obj 1525 262 tabplay~ audioData4, f 17;
#X msg 1425 220 read -resize \$1 audioData4;
#X floatatom 40 252 10 0 0 0 - - - 0;
#X obj 43 343 phasor~;
#X obj 44 370 *~;
#X obj 42 278 expr 48000/$f1;
#X obj 44 398 tabread4~ audioData1;
#X msg 71 310 0;
#X obj 165 318 hsl 162 25 0 0.25 0 0 empty empty empty -2 -10 0 12 #fcfcfc #000000 #000000 0 1;
#X floatatom 162 351 5 0 0 0 - - - 0;
#X obj 162 290 r bass_pitch;
#X msg 1423 140 ../../../Comp2AudioAssets/hihat1.wav;
#X obj 1423 113 r bang_hihat1;
#X obj 1601 111 r hihat1;
#N canvas 0 50 450 250 (subpatch) 0;
#X array audioData5 69017 float 2;
#X coords 0 1 69017 -1 200 140 1 0 0;
#X restore 594 689 graph;
#X obj 593 562 message2symbol;
#X obj 725 489 bng 19 250 50 0 empty empty empty 0 -10 0 12 #fcfcfc #000000 #000000;
#X obj 594 631 soundfiler;
#X obj 593 488 r bang_hihat2;
#X obj 771 486 r hihat2;
#X msg 595 595 read -resize \$1 audioData5;
#X obj 695 637 tabplay~ audioData5, f 17;
#X msg 593 515 ../../../Comp2AudioAssets/hihat2.wav;
#X msg 40 138 ../../../Comp2AudioAssets/AmbientBassSustained_C_Major.wav;
#N canvas 130 130 450 250 (subpatch) 0;
#X array audioData1_2 384000 float 2;
#X coords 0 1 384000 -1 200 140 1 0 0;
#X restore 272 468 graph;
#X msg 40 194 read -resize \$1 audioData1 audioData1_2;
#X obj 306 408 tabread4~ audioData1_2;
#X obj 1089 890 *~ 1;
#X obj 1130 889 *~ 1;
#X obj 1098 828 rev3~ 100 90 3000 20;
#X obj 1157 859 r reverb_amount;
#X obj 1112 733 r reverb_output;
#X obj 1148 757 r reverb_liveliness;
#X obj 1183 781 r reverb_crossover_freq;
#X obj 1234 805 r reverb_high_freq_damping;
#X obj 74 752 soundfiler;
#N canvas 130 130 450 250 (subpatch) 0;
#X array audioData6 384000 float 2;
#X coords 0 1 384000 -1 200 140 1 0 0;
#X restore 63 885 graph;
#X obj 74 697 message2symbol;
#X obj 190 643 bng 19 250 50 0 empty empty empty 0 -10 0 12 #fcfcfc #000000 #000000;
#N canvas 130 130 450 250 (subpatch) 0;
#X array audioData6_2 384000 float 2;
#X coords 0 1 384000 -1 200 140 1 0 0;
#X restore 291 884 graph;
#X obj 74 643 r bang_whoosh1;
#X obj 89 817 tabplay~ audioData6, f 17;
#X obj 243 823 tabplay~ audioData6_2, f 17;
#X msg 74 725 read -resize \$1 audioData6 audioData6_2;
#X msg 74 669 ../../../Comp2AudioAssets/swell.wav;
#X msg 590 136 ../../../Comp2AudioAssets/deepKick.wav;
#X obj 255 369 r bass_volume;
#X obj 216 429 *~;
#X obj 257 428 *~;
#X floatatom 371 355 5 0 0 0 - - - 0;
#X obj 957 623 *~ 1;
#X obj 1043 625 *~ 1;
#X obj 1128 625 *~ 1;
#X obj 914 285 r kick_volume;
#X obj 1345 381 *~, f 5;
#X obj 803 680 *~, f 5;
#X obj 1342 468 r hihat1_volume;
#X obj 842 654 r hihat2_volume;
#X obj 875 321 *~, f 5;
#X connect 1 0 29 0;
#X connect 3 0 52 0;
#X connect 5 0 50 0;
#X connect 6 0 50 0;
#X connect 9 0 11 0;
#X connect 10 0 72 0;
#X connect 10 0 13 0;
#X connect 11 0 7 0;
#X connect 12 0 72 0;
#X connect 12 0 13 0;
#X connect 13 0 85 0;
#X connect 15 0 18 0;
#X connect 16 0 19 0;
#X connect 17 0 20 0;
#X connect 17 0 19 0;
#X connect 18 0 21 0;
#X connect 19 0 78 0;
#X connect 19 1 16 0;
#X connect 20 0 15 0;
#X connect 22 0 20 0;
#X connect 22 0 19 0;
#X connect 24 0 28 0;
#X connect 25 0 27 0;
#X connect 25 0 38 0;
#X connect 27 0 81 0;
#X connect 28 0 26 0;
#X connect 29 0 32 0;
#X connect 29 0 31 1;
#X connect 30 0 31 0;
#X connect 31 0 33 0;
#X connect 31 0 53 0;
#X connect 32 0 30 0;
#X connect 33 0 74 0;
#X connect 34 0 30 0;
#X connect 35 0 30 0;
#X connect 35 0 36 0;
#X connect 37 0 35 0;
#X connect 38 0 24 0;
#X connect 39 0 27 0;
#X connect 39 0 38 0;
#X connect 42 0 47 0;
#X connect 43 0 49 0;
#X connect 43 0 48 0;
#X connect 45 0 49 0;
#X connect 45 0 48 0;
#X connect 47 0 44 0;
#X connect 48 0 82 0;
#X connect 49 0 42 0;
#X connect 50 0 3 0;
#X connect 52 0 1 0;
#X connect 53 0 75 0;
#X connect 56 0 54 0;
#X connect 56 0 4 0;
#X connect 56 1 55 0;
#X connect 56 1 4 1;
#X connect 57 0 55 1;
#X connect 57 0 54 1;
#X connect 58 0 56 2;
#X connect 59 0 56 3;
#X connect 60 0 56 4;
#X connect 61 0 56 5;
#X connect 64 0 70 0;
#X connect 65 0 71 0;
#X connect 67 0 71 0;
#X connect 67 0 68 0;
#X connect 67 0 69 0;
#X connect 68 0 77 0;
#X connect 69 0 79 0;
#X connect 70 0 62 0;
#X connect 71 0 64 0;
#X connect 72 0 9 0;
#X connect 73 0 75 1;
#X connect 73 0 74 1;
#X connect 74 0 77 0;
#X connect 75 0 79 0;
#X connect 76 0 74 1;
#X connect 76 0 75 1;
#X connect 77 0 56 0;
#X connect 77 0 4 0;
#X connect 78 0 56 1;
#X connect 78 0 4 1;
#X connect 78 0 4 0;
#X connect 78 0 56 0;
#X connect 79 0 56 1;
#X connect 79 0 4 1;
#X connect 80 0 85 1;
#X connect 81 0 78 0;
#X connect 82 0 78 0;
#X connect 83 0 81 1;
#X connect 84 0 82 1;
#X connect 85 0 78 0;
