#N canvas 102 130 2440 1189 12;
#X declare -path Abstractions;
#X obj 43 53 declare -path Abstractions;
#N canvas 0 50 450 250 (subpatch) 0;
#X array audioData1 96000 float 2;
#X coords 0 1 96000 -1 200 140 1;
#X restore 50 229 graph;
#X obj 1056 1917 dac~;
#X obj 50 377 tabplay~ audioData1, f 17;
#X obj 198 389 bng 19 250 50 0 empty empty empty 0 -10 0 12 #fcfcfc #000000 #000000;
#X obj 50 140 readSample;
#X obj 50 191 soundfiler;
#X msg 50 166 read -resize \$1 audioData1;
#X obj 311 139 readSample;
#X obj 311 190 soundfiler;
#X msg 311 165 read -resize \$1 audioData2;
#X obj 312 373 tabplay~ audioData2, f 17;
#N canvas 0 50 450 250 (subpatch) 0;
#X array audioData2 100 float 3;
#A 0 0 0 0 0 0 0 0 0 0 0 0 0 0 0 0 0 0 0 0 0 0 0 0 0 0 0 0 0 0 0 0 0 0 0 0 0 0 0 0 0 0 0 0 0 0 0 0 0 0 0 0 0 0 0 0 0 0 0 0 0 0 0 0 0 0 0 0 0 0 0 0 0 0 0 0 0 0 0 0 0 0 0 0 0 0 0 0 0 0 0 0 0 0 0 0 0 0 0 0 0;
#X coords 0 1 100 -1 200 140 1;
#X restore 309 228 graph;
#X msg 50 114 DefaultPad_XShortLength_E_Scale-1;
#X obj 560 138 readSample;
#X obj 560 189 soundfiler;
#N canvas 0 50 450 250 (subpatch) 0;
#X array audioData3 100 float 3;
#A 0 0 0 0 0 0 0 0 0 0 0 0 0 0 0 0 0 0 0 0 0 0 0 0 0 0 0 0 0 0 0 0 0 0 0 0 0 0 0 0 0 0 0 0 0 0 0 0 0 0 0 0 0 0 0 0 0 0 0 0 0 0 0 0 0 0 0 0 0 0 0 0 0 0 0 0 0 0 0 0 0 0 0 0 0 0 0 0 0 0 0 0 0 0 0 0 0 0 0 0 0;
#X coords 0 1 100 -1 200 140 1 0 0;
#X restore 558 227 graph;
#X msg 311 113 DefaultPad_XShortLength_E_Scale-2;
#X msg 560 112 DefaultPad_XShortLength_E_Scale-3;
#X msg 560 164 read -resize \$1 audioData3;
#X obj 561 372 tabplay~ audioData3, f 17;
#X obj 810 137 readSample;
#X obj 810 188 soundfiler;
#N canvas 0 50 450 250 (subpatch) 0;
#X array audioData4 72000 float 2;
#X coords 0 1 72000 -1 200 140 1 0 0;
#X restore 808 226 graph;
#X msg 810 111 DefaultPad_XShortLength_E_Scale-4;
#X msg 810 163 read -resize \$1 audioData4;
#X obj 811 371 tabplay~ audioData4, f 17;
#X obj 1056 136 readSample;
#X obj 1056 187 soundfiler;
#N canvas 0 50 450 250 (subpatch) 0;
#X array audioData5 72000 float 2;
#X coords 0 1 72000 -1 200 140 1 0 0;
#X restore 1054 225 graph;
#X msg 1056 110 DefaultPad_XShortLength_E_Scale-5;
#X msg 1056 162 read -resize \$1 audioData5;
#X obj 1303 135 readSample;
#X obj 1303 186 soundfiler;
#N canvas 0 50 450 250 (subpatch) 0;
#X array audioData6 239988 float 2;
#X coords 0 1 239988 -1 200 140 1 0 0;
#X restore 1301 224 graph;
#X msg 1303 109 DefaultPad_XShortLength_E_Scale-6;
#X msg 1303 161 read -resize \$1 audioData6;
#X obj 1304 369 tabplay~ audioData6, f 17;
#X obj 1551 134 readSample;
#X obj 1551 185 soundfiler;
#N canvas 0 50 450 250 (subpatch) 0;
#X array audioData7 240028 float 2;
#X coords 0 1 240028 -1 200 140 1 0 0;
#X restore 1549 223 graph;
#X msg 1551 108 DefaultPad_XShortLength_E_Scale-7;
#X msg 1551 160 read -resize \$1 audioData7;
#X obj 1552 368 tabplay~ audioData7, f 17;
#X obj 1799 133 readSample;
#X obj 1799 184 soundfiler;
#N canvas 0 50 450 250 (subpatch) 0;
#X array audioData8 239991 float 2;
#X coords 0 1 239991 -1 200 140 1 0 0;
#X restore 1797 222 graph;
#X msg 1799 107 DefaultPad_XShortLength_E_Scale-8;
#X msg 1799 158 read -resize \$1 audioData8;
#X obj 1800 367 tabplay~ audioData8, f 17;
#N canvas 0 50 450 250 (subpatch) 0;
#X array audioData9 72000 float 2;
#X coords 0 1 72000 -1 200 140 1 0 0;
#X restore 51 582 graph;
#X obj 199 742 bng 19 250 50 0 empty empty empty 0 -10 0 12 #fcfcfc #000000 #000000;
#X obj 51 493 readSample;
#X obj 51 544 soundfiler;
#X obj 312 492 readSample;
#X obj 312 543 soundfiler;
#N canvas 0 50 450 250 (subpatch) 0;
#X array audioData10 72000 float 2;
#X coords 0 1 72000 -1 200 140 1 0 0;
#X restore 310 581 graph;
#X obj 561 491 readSample;
#X obj 561 542 soundfiler;
#N canvas 0 50 450 250 (subpatch) 0;
#X array audioData11 240027 float 2;
#X coords 0 1 240027 -1 200 140 1 0 0;
#X restore 559 580 graph;
#X obj 811 490 readSample;
#X obj 811 541 soundfiler;
#N canvas 0 50 450 250 (subpatch) 0;
#X array audioData12 239995 float 2;
#X coords 0 1 239995 -1 200 140 1 0 0;
#X restore 809 579 graph;
#X obj 1057 489 readSample;
#X obj 1057 540 soundfiler;
#N canvas 0 50 450 250 (subpatch) 0;
#X array audioData13 240014 float 2;
#X coords 0 1 240014 -1 200 140 1 0 0;
#X restore 1055 578 graph;
#X obj 1304 488 readSample;
#X obj 1304 539 soundfiler;
#N canvas 0 50 450 250 (subpatch) 0;
#X array audioData14 240018 float 2;
#X coords 0 1 240018 -1 200 140 1 0 0;
#X restore 1302 577 graph;
#X obj 1552 487 readSample;
#X obj 1552 538 soundfiler;
#N canvas 0 50 450 250 (subpatch) 0;
#X array audioData15 240005 float 2;
#X coords 0 1 240005 -1 200 140 1 0 0;
#X restore 1550 576 graph;
#X obj 1800 486 readSample;
#X obj 1800 537 soundfiler;
#N canvas 0 50 450 250 (subpatch) 0;
#X array audioData16 240013 float 2;
#X coords 0 1 240013 -1 200 140 1 0 0;
#X restore 1798 575 graph;
#X msg 51 467 DefaultPad_XShortLength_E_Scale-9;
#X msg 51 519 read -resize \$1 audioData9;
#X msg 312 466 DefaultPad_XShortLength_E_Scale-10;
#X msg 312 518 read -resize \$1 audioData10;
#X obj 313 726 tabplay~ audioData10, f 17;
#X msg 561 465 DefaultPad_XShortLength_E_Scale-11;
#X msg 561 517 read -resize \$1 audioData11;
#X obj 562 724 tabplay~ audioData11, f 17;
#X msg 811 464 DefaultPad_XShortLength_E_Scale-12;
#X msg 811 516 read -resize \$1 audioData12;
#X obj 812 724 tabplay~ audioData12, f 17;
#X msg 1057 463 DefaultPad_XShortLength_E_Scale-13;
#X msg 1057 515 read -resize \$1 audioData13;
#X obj 1058 723 tabplay~ audioData13, f 17;
#X msg 1304 462 DefaultPad_XShortLength_E_Scale-14;
#X msg 1304 514 read -resize \$1 audioData14;
#X obj 1305 722 tabplay~ audioData14, f 17;
#X msg 1552 461 DefaultPad_XShortLength_E_Scale-15;
#X msg 1552 513 read -resize \$1 audioData15;
#X obj 1553 721 tabplay~ audioData15, f 17;
#X msg 1800 460 DefaultPad_XShortLength_E_Scale-16;
#X msg 1800 510 read -resize \$1 audioData16;
#X obj 1801 720 tabplay~ audioData16, f 17;
#X obj 51 729 tabplay~ audioData9, f 17;
#X obj 50 87 r bang_1;
#X obj 309 87 r bang_2;
#X obj 560 87 r bang_3;
#X obj 810 86 r bang_4;
#X obj 1056 85 r bang_5;
#X obj 1303 84 r bang_6;
#X obj 1551 83 r bang_7;
#X obj 1799 82 r bang_8;
#X obj 51 441 r bang_9;
#X obj 312 440 r bang_10;
#X obj 561 440 r bang_11;
#X obj 811 438 r bang_12;
#X obj 1057 438 r bang_13;
#X obj 1304 435 r bang_14;
#X obj 1552 435 r bang_15;
#X obj 1800 434 r bang_16;
#X obj 1057 370 tabplay~ audioData5, f 17;
#N canvas 0 50 450 250 (subpatch) 0;
#X array audioData17 72000 float 2;
#X coords 0 1 72000 -1 200 140 1 0 0;
#X restore 52 935 graph;
#X obj 200 1095 bng 19 250 50 0 empty empty empty 0 -10 0 12 #fcfcfc #000000 #000000;
#X obj 52 846 readSample;
#X obj 52 897 soundfiler;
#X obj 313 845 readSample;
#X obj 313 896 soundfiler;
#N canvas 0 50 450 250 (subpatch) 0;
#X array audioData18 239993 float 2;
#X coords 0 1 239993 -1 200 140 1 0 0;
#X restore 311 934 graph;
#X obj 562 844 readSample;
#X obj 562 895 soundfiler;
#N canvas 0 50 450 250 (subpatch) 0;
#X array audioData19 240027 float 2;
#X coords 0 1 240027 -1 200 140 1 0 0;
#X restore 560 933 graph;
#X obj 812 843 readSample;
#X obj 812 894 soundfiler;
#N canvas 0 50 450 250 (subpatch) 0;
#X array audioData20 239995 float 2;
#X coords 0 1 239995 -1 200 140 1 0 0;
#X restore 810 932 graph;
#X obj 1058 842 readSample;
#X obj 1058 893 soundfiler;
#N canvas 0 50 450 250 (subpatch) 0;
#X array audioData21 240014 float 2;
#X coords 0 1 240014 -1 200 140 1 0 0;
#X restore 1056 931 graph;
#X obj 1305 841 readSample;
#X obj 1305 892 soundfiler;
#N canvas 0 50 450 250 (subpatch) 0;
#X array audioData22 240018 float 2;
#X coords 0 1 240018 -1 200 140 1 0 0;
#X restore 1303 930 graph;
#X obj 1553 840 readSample;
#X obj 1553 891 soundfiler;
#N canvas 0 50 450 250 (subpatch) 0;
#X array audioData23 240005 float 2;
#X coords 0 1 240005 -1 200 140 1 0 0;
#X restore 1551 929 graph;
#X obj 1801 839 readSample;
#X obj 1801 890 soundfiler;
#N canvas 0 50 450 250 (subpatch) 0;
#X array audioData24 240013 float 2;
#X coords 0 1 240013 -1 200 140 1 0 0;
#X restore 1799 928 graph;
#X msg 52 820 DefaultPad_XShortLength_E_Scale-17;
#X msg 52 872 read -resize \$1 audioData17;
#X obj 52 1082 tabplay~ audioData17, f 17;
#X obj 52 794 r bang_17;
#X obj 313 793 r bang_18;
#X msg 313 819 DefaultPad_XShortLength_E_Scale-18;
#X msg 313 871 read -resize \$1 audioData18;
#X obj 314 1079 tabplay~ audioData18, f 17;
#X obj 562 793 r bang_19;
#X msg 562 818 DefaultPad_XShortLength_E_Scale-19;
#X msg 562 870 read -resize \$1 audioData19;
#X obj 563 1077 tabplay~ audioData19, f 17;
#X obj 812 791 r bang_20;
#X msg 812 817 DefaultPad_XShortLength_E_Scale-20;
#X msg 812 869 read -resize \$1 audioData20;
#X obj 813 1077 tabplay~ audioData20, f 17;
#X msg 1058 816 DefaultPad_XShortLength_E_Scale-21;
#X msg 1058 868 read -resize \$1 audioData21;
#X obj 1059 1075 tabplay~ audioData21, f 17;
#X msg 1305 815 DefaultPad_XShortLength_E_Scale-22;
#X obj 1058 791 r bang_21;
#X obj 1305 788 r bang_22;
#X msg 1305 867 read -resize \$1 audioData22;
#X obj 1306 1074 tabplay~ audioData22, f 17;
#X obj 1553 788 r bang_23;
#X msg 1553 814 DefaultPad_XShortLength_E_Scale-23;
#X msg 1553 866 read -resize \$1 audioData23;
#X obj 1554 1074 tabplay~ audioData23, f 17;
#X obj 1801 787 r bang_24;
#X msg 1801 813 DefaultPad_XShortLength_E_Scale-24;
#X msg 1801 863 read -resize \$1 audioData24;
#X obj 1802 1073 tabplay~ audioData24, f 17;
#N canvas 0 50 450 250 (subpatch) 0;
#X array audioData25 240026 float 2;
#X coords 0 1 240026 -1 200 140 1 0 0;
#X restore 52 1284 graph;
#X obj 200 1444 bng 19 250 50 0 empty empty empty 0 -10 0 12 #fcfcfc #000000 #000000;
#X obj 52 1195 readSample;
#X obj 52 1246 soundfiler;
#X obj 313 1194 readSample;
#X obj 313 1245 soundfiler;
#N canvas 0 50 450 250 (subpatch) 0;
#X array audioData26 239993 float 2;
#X coords 0 1 239993 -1 200 140 1 0 0;
#X restore 311 1283 graph;
#X obj 562 1193 readSample;
#X obj 562 1244 soundfiler;
#N canvas 0 50 450 250 (subpatch) 0;
#X array audioData27 240027 float 2;
#X coords 0 1 240027 -1 200 140 1 0 0;
#X restore 560 1282 graph;
#X obj 812 1192 readSample;
#X obj 812 1243 soundfiler;
#N canvas 0 50 450 250 (subpatch) 0;
#X array audioData28 239995 float 2;
#X coords 0 1 239995 -1 200 140 1 0 0;
#X restore 810 1281 graph;
#X obj 52 1143 r bang_25;
#X msg 52 1169 DefaultPad_XShortLength_E_Scale-25;
#X msg 52 1221 read -resize \$1 audioData25;
#X obj 52 1431 tabplay~ audioData25, f 17;
#X obj 313 1142 r bang_26;
#X msg 313 1168 DefaultPad_XShortLength_E_Scale-26;
#X msg 313 1220 read -resize \$1 audioData26;
#X obj 314 1428 tabplay~ audioData26, f 17;
#X obj 562 1142 r bang_27;
#X msg 562 1167 DefaultPad_XShortLength_E_Scale-27;
#X msg 562 1219 read -resize \$1 audioData27;
#X obj 563 1426 tabplay~ audioData27, f 17;
#X obj 812 1140 r bang_28;
#X msg 812 1166 DefaultPad_XShortLength_E_Scale-28;
#X msg 812 1218 read -resize \$1 audioData28;
#X obj 813 1426 tabplay~ audioData28, f 17;
#N canvas 0 50 450 250 (subpatch) 0;
#X array audioData29 240026 float 2;
#X coords 0 1 240026 -1 200 140 1 0 0;
#X restore 1055 1279 graph;
#X obj 1203 1439 bng 19 250 50 0 empty empty empty 0 -10 0 12 #fcfcfc #000000 #000000;
#X obj 1055 1190 readSample;
#X obj 1055 1241 soundfiler;
#X obj 1316 1189 readSample;
#X obj 1316 1240 soundfiler;
#N canvas 0 50 450 250 (subpatch) 0;
#X array audioData30 239993 float 2;
#X coords 0 1 239993 -1 200 140 1 0 0;
#X restore 1314 1278 graph;
#X obj 1565 1188 readSample;
#X obj 1565 1239 soundfiler;
#N canvas 0 50 450 250 (subpatch) 0;
#X array audioData31 240027 float 2;
#X coords 0 1 240027 -1 200 140 1 0 0;
#X restore 1563 1277 graph;
#X obj 1815 1187 readSample;
#X obj 1815 1238 soundfiler;
#N canvas 0 50 450 250 (subpatch) 0;
#X array audioData32 239995 float 2;
#X coords 0 1 239995 -1 200 140 1 0 0;
#X restore 1813 1276 graph;
#X obj 1055 1138 r bang_29;
#X msg 1055 1164 DefaultPad_XShortLength_E_Scale-29;
#X msg 1055 1216 read -resize \$1 audioData29;
#X obj 1055 1426 tabplay~ audioData29, f 17;
#X obj 1316 1137 r bang_30;
#X msg 1316 1163 DefaultPad_XShortLength_E_Scale-30;
#X msg 1316 1215 read -resize \$1 audioData30;
#X obj 1317 1422 tabplay~ audioData30, f 17;
#X obj 1565 1137 r bang_31;
#X msg 1565 1162 DefaultPad_XShortLength_E_Scale-31;
#X msg 1565 1214 read -resize \$1 audioData31;
#X obj 1566 1421 tabplay~ audioData31, f 17;
#X obj 1815 1135 r bang_32;
#X msg 1815 1161 DefaultPad_XShortLength_E_Scale-32;
#X msg 1815 1213 read -resize \$1 audioData32;
#X obj 1816 1421 tabplay~ audioData32, f 17;
#N canvas 0 50 450 250 (subpatch) 0;
#X array audioData33 96000 float 2;
#X coords 0 1 96000 -1 200 140 1 0 0;
#X restore 54 1632 graph;
#X obj 202 1792 bng 19 250 50 0 empty empty empty 0 -10 0 12 #fcfcfc #000000 #000000;
#X obj 54 1543 readSample;
#X obj 54 1594 soundfiler;
#X obj 315 1542 readSample;
#X obj 315 1593 soundfiler;
#N canvas 0 50 450 250 (subpatch) 0;
#X array audioData34 96000 float 2;
#X coords 0 1 96000 -1 200 140 1 0 0;
#X restore 313 1631 graph;
#X obj 564 1541 readSample;
#X obj 564 1592 soundfiler;
#N canvas 0 50 450 250 (subpatch) 0;
#X array audioData35 96000 float 2;
#X coords 0 1 96000 -1 200 140 1 0 0;
#X restore 562 1630 graph;
#X obj 54 1491 r bang_33;
#X msg 54 1517 DefaultPad_XShortLength_E_Scale-33;
#X msg 54 1569 read -resize \$1 audioData33;
#X obj 54 1779 tabplay~ audioData33, f 17;
#X obj 315 1490 r bang_34;
#X msg 315 1516 DefaultPad_XShortLength_E_Scale-34;
#X msg 315 1568 read -resize \$1 audioData34;
#X obj 316 1776 tabplay~ audioData34, f 17;
#X obj 564 1490 r bang_35;
#X msg 564 1515 DefaultPad_XShortLength_E_Scale-35;
#X msg 564 1567 read -resize \$1 audioData35;
#X obj 565 1774 tabplay~ audioData35, f 17;
#X obj 1060 1831 *~ 0.35;
#X obj 742 1847 bng 19 250 50 0 empty empty empty 0 -10 0 12 #fcfcfc #000000 #000000;
#X connect 3 0 253 0;
#X connect 4 0 3 0;
#X connect 4 0 11 0;
#X connect 5 0 7 0;
#X connect 7 0 6 0;
#X connect 8 0 10 0;
#X connect 10 0 9 0;
#X connect 11 0 253 0;
#X connect 13 0 5 0;
#X connect 14 0 19 0;
#X connect 17 0 8 0;
#X connect 18 0 14 0;
#X connect 19 0 15 0;
#X connect 20 0 253 0;
#X connect 21 0 25 0;
#X connect 24 0 21 0;
#X connect 25 0 22 0;
#X connect 26 0 253 0;
#X connect 27 0 31 0;
#X connect 30 0 27 0;
#X connect 31 0 28 0;
#X connect 32 0 36 0;
#X connect 35 0 32 0;
#X connect 36 0 33 0;
#X connect 37 0 253 0;
#X connect 38 0 42 0;
#X connect 41 0 38 0;
#X connect 42 0 39 0;
#X connect 43 0 253 0;
#X connect 44 0 48 0;
#X connect 47 0 44 0;
#X connect 48 0 45 0;
#X connect 49 0 253 0;
#X connect 51 0 79 0;
#X connect 51 0 98 0;
#X connect 52 0 76 0;
#X connect 54 0 78 0;
#X connect 57 0 81 0;
#X connect 60 0 84 0;
#X connect 63 0 87 0;
#X connect 66 0 90 0;
#X connect 69 0 93 0;
#X connect 72 0 96 0;
#X connect 75 0 52 0;
#X connect 76 0 53 0;
#X connect 77 0 54 0;
#X connect 78 0 55 0;
#X connect 79 0 253 0;
#X connect 80 0 57 0;
#X connect 81 0 58 0;
#X connect 82 0 253 0;
#X connect 83 0 60 0;
#X connect 84 0 61 0;
#X connect 85 0 253 0;
#X connect 86 0 63 0;
#X connect 87 0 64 0;
#X connect 88 0 253 0;
#X connect 89 0 66 0;
#X connect 90 0 67 0;
#X connect 91 0 253 0;
#X connect 92 0 69 0;
#X connect 93 0 70 0;
#X connect 94 0 253 0;
#X connect 95 0 72 0;
#X connect 96 0 73 0;
#X connect 97 0 253 0;
#X connect 98 0 253 0;
#X connect 99 0 13 0;
#X connect 99 0 3 0;
#X connect 100 0 17 0;
#X connect 100 0 11 0;
#X connect 101 0 18 0;
#X connect 101 0 20 0;
#X connect 102 0 24 0;
#X connect 102 0 26 0;
#X connect 103 0 30 0;
#X connect 103 0 115 0;
#X connect 104 0 35 0;
#X connect 104 0 37 0;
#X connect 105 0 41 0;
#X connect 105 0 43 0;
#X connect 106 0 47 0;
#X connect 106 0 49 0;
#X connect 107 0 98 0;
#X connect 108 0 77 0;
#X connect 108 0 79 0;
#X connect 109 0 80 0;
#X connect 109 0 82 0;
#X connect 110 0 83 0;
#X connect 110 0 85 0;
#X connect 111 0 86 0;
#X connect 111 0 88 0;
#X connect 112 0 89 0;
#X connect 112 0 91 0;
#X connect 113 0 92 0;
#X connect 113 0 94 0;
#X connect 114 0 95 0;
#X connect 114 0 97 0;
#X connect 115 0 253 0;
#X connect 117 0 143 0;
#X connect 117 0 148 0;
#X connect 118 0 142 0;
#X connect 120 0 147 0;
#X connect 123 0 151 0;
#X connect 126 0 155 0;
#X connect 129 0 158 0;
#X connect 132 0 163 0;
#X connect 135 0 167 0;
#X connect 138 0 171 0;
#X connect 141 0 118 0;
#X connect 142 0 119 0;
#X connect 143 0 253 0;
#X connect 144 0 141 0;
#X connect 144 0 143 0;
#X connect 145 0 146 0;
#X connect 145 0 148 0;
#X connect 146 0 120 0;
#X connect 147 0 121 0;
#X connect 148 0 253 0;
#X connect 149 0 150 0;
#X connect 149 0 152 0;
#X connect 150 0 123 0;
#X connect 151 0 124 0;
#X connect 152 0 253 0;
#X connect 153 0 154 0;
#X connect 153 0 156 0;
#X connect 154 0 126 0;
#X connect 155 0 127 0;
#X connect 156 0 253 0;
#X connect 157 0 129 0;
#X connect 158 0 130 0;
#X connect 159 0 253 0;
#X connect 160 0 132 0;
#X connect 161 0 157 0;
#X connect 161 0 159 0;
#X connect 162 0 160 0;
#X connect 162 0 164 0;
#X connect 163 0 133 0;
#X connect 164 0 253 0;
#X connect 165 0 166 0;
#X connect 165 0 168 0;
#X connect 166 0 135 0;
#X connect 167 0 136 0;
#X connect 168 0 253 0;
#X connect 169 0 170 0;
#X connect 169 0 172 0;
#X connect 170 0 138 0;
#X connect 171 0 139 0;
#X connect 172 0 253 0;
#X connect 174 0 189 0;
#X connect 174 0 193 0;
#X connect 175 0 188 0;
#X connect 177 0 192 0;
#X connect 180 0 196 0;
#X connect 183 0 200 0;
#X connect 186 0 187 0;
#X connect 186 0 189 0;
#X connect 187 0 175 0;
#X connect 188 0 176 0;
#X connect 189 0 253 0;
#X connect 190 0 191 0;
#X connect 190 0 193 0;
#X connect 191 0 177 0;
#X connect 192 0 178 0;
#X connect 193 0 253 0;
#X connect 194 0 195 0;
#X connect 194 0 197 0;
#X connect 195 0 180 0;
#X connect 196 0 181 0;
#X connect 197 0 253 0;
#X connect 198 0 199 0;
#X connect 198 0 201 0;
#X connect 199 0 183 0;
#X connect 200 0 184 0;
#X connect 201 0 253 0;
#X connect 203 0 218 0;
#X connect 203 0 222 0;
#X connect 204 0 217 0;
#X connect 206 0 221 0;
#X connect 209 0 225 0;
#X connect 212 0 229 0;
#X connect 215 0 216 0;
#X connect 215 0 218 0;
#X connect 216 0 204 0;
#X connect 217 0 205 0;
#X connect 218 0 253 0;
#X connect 219 0 220 0;
#X connect 219 0 222 0;
#X connect 220 0 206 0;
#X connect 221 0 207 0;
#X connect 222 0 253 0;
#X connect 223 0 224 0;
#X connect 223 0 226 0;
#X connect 224 0 209 0;
#X connect 225 0 210 0;
#X connect 226 0 253 0;
#X connect 227 0 228 0;
#X connect 227 0 230 0;
#X connect 228 0 212 0;
#X connect 229 0 213 0;
#X connect 230 0 253 0;
#X connect 232 0 244 0;
#X connect 232 0 248 0;
#X connect 233 0 243 0;
#X connect 235 0 247 0;
#X connect 238 0 251 0;
#X connect 241 0 242 0;
#X connect 241 0 244 0;
#X connect 242 0 233 0;
#X connect 243 0 234 0;
#X connect 244 0 253 0;
#X connect 245 0 246 0;
#X connect 245 0 248 0;
#X connect 246 0 235 0;
#X connect 247 0 236 0;
#X connect 248 0 253 0;
#X connect 249 0 250 0;
#X connect 249 0 252 0;
#X connect 250 0 238 0;
#X connect 251 0 239 0;
#X connect 252 0 253 0;
#X connect 253 0 2 0;
#X connect 253 0 2 1;
#X connect 254 0 252 0;
