#N canvas 102 130 2440 1350 12;
#X declare -path Abstractions;
#X obj 43 53 declare -path Abstractions;
#N canvas 0 50 450 250 (subpatch) 0;
#X array audioData1 96000 float 2;
#X coords 0 1 96000 -1 200 140 1;
#X restore 50 229 graph;
#X obj 1031 3394 dac~;
#X obj 50 377 tabplay~ audioData1, f 17;
#X obj 198 389 bng 19 250 50 0 empty empty empty 0 -10 0 12 #fcfcfc #000000 #000000;
#X obj 50 140 readSample;
#X obj 50 191 soundfiler;
#X obj 311 139 readSample;
#X obj 311 190 soundfiler;
#X obj 312 373 tabplay~ audioData2, f 17;
#N canvas 0 50 450 250 (subpatch) 0;
#X array audioData2 100 float 3;
#A 0 0 0 0 0 0 0 0 0 0 0 0 0 0 0 0 0 0 0 0 0 0 0 0 0 0 0 0 0 0 0 0 0 0 0 0 0 0 0 0 0 0 0 0 0 0 0 0 0 0 0 0 0 0 0 0 0 0 0 0 0 0 0 0 0 0 0 0 0 0 0 0 0 0 0 0 0 0 0 0 0 0 0 0 0 0 0 0 0 0 0 0 0 0 0 0 0 0 0 0 0;
#X coords 0 1 100 -1 200 140 1;
#X restore 309 228 graph;
#X msg 50 114 DefaultPad_XShortLength_E_Scale-1;
#X obj 560 138 readSample;
#X obj 560 189 soundfiler;
#N canvas 0 50 450 250 (subpatch) 0;
#X array audioData3 100 float 3;
#A 0 0 0 0 0 0 0 0 0 0 0 0 0 0 0 0 0 0 0 0 0 0 0 0 0 0 0 0 0 0 0 0 0 0 0 0 0 0 0 0 0 0 0 0 0 0 0 0 0 0 0 0 0 0 0 0 0 0 0 0 0 0 0 0 0 0 0 0 0 0 0 0 0 0 0 0 0 0 0 0 0 0 0 0 0 0 0 0 0 0 0 0 0 0 0 0 0 0 0 0 0;
#X coords 0 1 100 -1 200 140 1 0 0;
#X restore 558 227 graph;
#X msg 311 113 DefaultPad_XShortLength_E_Scale-2;
#X msg 560 112 DefaultPad_XShortLength_E_Scale-3;
#X obj 561 372 tabplay~ audioData3, f 17;
#X obj 810 137 readSample;
#X obj 810 188 soundfiler;
#N canvas 0 50 450 250 (subpatch) 0;
#X array audioData4 72000 float 2;
#X coords 0 1 72000 -1 200 140 1 0 0;
#X restore 808 226 graph;
#X msg 810 111 DefaultPad_XShortLength_E_Scale-4;
#X obj 811 371 tabplay~ audioData4, f 17;
#X obj 1056 136 readSample;
#X obj 1056 187 soundfiler;
#N canvas 0 50 450 250 (subpatch) 0;
#X array audioData5 72000 float 2;
#X coords 0 1 72000 -1 200 140 1 0 0;
#X restore 1054 225 graph;
#X msg 1056 110 DefaultPad_XShortLength_E_Scale-5;
#X obj 1303 135 readSample;
#X obj 1303 186 soundfiler;
#N canvas 0 50 450 250 (subpatch) 0;
#X array audioData6 239988 float 2;
#X coords 0 1 239988 -1 200 140 1 0 0;
#X restore 1301 224 graph;
#X msg 1303 109 DefaultPad_XShortLength_E_Scale-6;
#X obj 1304 369 tabplay~ audioData6, f 17;
#X obj 1551 134 readSample;
#X obj 1551 185 soundfiler;
#N canvas 0 50 450 250 (subpatch) 0;
#X array audioData7 240028 float 2;
#X coords 0 1 240028 -1 200 140 1 0 0;
#X restore 1549 223 graph;
#X msg 1551 108 DefaultPad_XShortLength_E_Scale-7;
#X obj 1552 368 tabplay~ audioData7, f 17;
#X obj 1799 133 readSample;
#X obj 1799 184 soundfiler;
#N canvas 0 50 450 250 (subpatch) 0;
#X array audioData8 239991 float 2;
#X coords 0 1 239991 -1 200 140 1 0 0;
#X restore 1797 222 graph;
#X msg 1799 107 DefaultPad_XShortLength_E_Scale-8;
#X obj 1800 367 tabplay~ audioData8, f 17;
#N canvas 0 50 450 250 (subpatch) 0;
#X array audioData9 72000 float 2;
#X coords 0 1 72000 -1 200 140 1 0 0;
#X restore 51 822 graph;
#X obj 199 982 bng 19 250 50 0 empty empty empty 0 -10 0 12 #fcfcfc #000000 #000000;
#X obj 51 733 readSample;
#X obj 51 784 soundfiler;
#X obj 312 732 readSample;
#X obj 312 783 soundfiler;
#N canvas 0 50 450 250 (subpatch) 0;
#X array audioData10 72000 float 2;
#X coords 0 1 72000 -1 200 140 1 0 0;
#X restore 310 821 graph;
#X obj 561 731 readSample;
#X obj 561 782 soundfiler;
#N canvas 0 50 450 250 (subpatch) 0;
#X array audioData11 240027 float 2;
#X coords 0 1 240027 -1 200 140 1 0 0;
#X restore 559 820 graph;
#X obj 811 730 readSample;
#X obj 811 781 soundfiler;
#N canvas 0 50 450 250 (subpatch) 0;
#X array audioData12 239995 float 2;
#X coords 0 1 239995 -1 200 140 1 0 0;
#X restore 809 819 graph;
#X obj 1057 729 readSample;
#X obj 1057 780 soundfiler;
#N canvas 0 50 450 250 (subpatch) 0;
#X array audioData13 240014 float 2;
#X coords 0 1 240014 -1 200 140 1 0 0;
#X restore 1055 818 graph;
#X obj 1304 728 readSample;
#X obj 1304 779 soundfiler;
#N canvas 0 50 450 250 (subpatch) 0;
#X array audioData14 240018 float 2;
#X coords 0 1 240018 -1 200 140 1 0 0;
#X restore 1302 817 graph;
#X obj 1552 727 readSample;
#X obj 1552 778 soundfiler;
#N canvas 0 50 450 250 (subpatch) 0;
#X array audioData15 240005 float 2;
#X coords 0 1 240005 -1 200 140 1 0 0;
#X restore 1550 816 graph;
#X obj 1800 726 readSample;
#X obj 1800 777 soundfiler;
#N canvas 0 50 450 250 (subpatch) 0;
#X array audioData16 240013 float 2;
#X coords 0 1 240013 -1 200 140 1 0 0;
#X restore 1798 815 graph;
#X msg 51 707 DefaultPad_XShortLength_E_Scale-9;
#X msg 312 706 DefaultPad_XShortLength_E_Scale-10;
#X obj 313 966 tabplay~ audioData10, f 17;
#X msg 561 705 DefaultPad_XShortLength_E_Scale-11;
#X obj 562 964 tabplay~ audioData11, f 17;
#X msg 811 704 DefaultPad_XShortLength_E_Scale-12;
#X obj 812 964 tabplay~ audioData12, f 17;
#X msg 1057 703 DefaultPad_XShortLength_E_Scale-13;
#X obj 1058 963 tabplay~ audioData13, f 17;
#X msg 1304 702 DefaultPad_XShortLength_E_Scale-14;
#X msg 1304 754 read -resize \$1 audioData14;
#X obj 1305 962 tabplay~ audioData14, f 17;
#X msg 1552 701 DefaultPad_XShortLength_E_Scale-15;
#X obj 1553 961 tabplay~ audioData15, f 17;
#X msg 1800 700 DefaultPad_XShortLength_E_Scale-16;
#X obj 1801 960 tabplay~ audioData16, f 17;
#X obj 51 969 tabplay~ audioData9, f 17;
#X obj 50 87 r bang_1;
#X obj 309 87 r bang_2;
#X obj 560 87 r bang_3;
#X obj 810 86 r bang_4;
#X obj 1056 85 r bang_5;
#X obj 1303 84 r bang_6;
#X obj 1551 83 r bang_7;
#X obj 1799 82 r bang_8;
#X obj 51 681 r bang_9;
#X obj 312 680 r bang_10;
#X obj 561 680 r bang_11;
#X obj 811 678 r bang_12;
#X obj 1057 678 r bang_13;
#X obj 1304 675 r bang_14;
#X obj 1552 675 r bang_15;
#X obj 1800 674 r bang_16;
#X obj 1057 370 tabplay~ audioData5, f 17;
#N canvas 0 50 450 250 (subpatch) 0;
#X array audioData17 72000 float 2;
#X coords 0 1 72000 -1 200 140 1 0 0;
#X restore 53 1406 graph;
#X obj 201 1566 bng 19 250 50 0 empty empty empty 0 -10 0 12 #fcfcfc #000000 #000000;
#X obj 53 1317 readSample;
#X obj 53 1368 soundfiler;
#X obj 314 1316 readSample;
#X obj 314 1367 soundfiler;
#N canvas 0 50 450 250 (subpatch) 0;
#X array audioData18 239993 float 2;
#X coords 0 1 239993 -1 200 140 1 0 0;
#X restore 312 1405 graph;
#X obj 563 1315 readSample;
#X obj 563 1366 soundfiler;
#N canvas 0 50 450 250 (subpatch) 0;
#X array audioData19 240027 float 2;
#X coords 0 1 240027 -1 200 140 1 0 0;
#X restore 561 1404 graph;
#X obj 813 1314 readSample;
#X obj 813 1365 soundfiler;
#N canvas 0 50 450 250 (subpatch) 0;
#X array audioData20 239995 float 2;
#X coords 0 1 239995 -1 200 140 1 0 0;
#X restore 811 1403 graph;
#X obj 1059 1313 readSample;
#X obj 1059 1364 soundfiler;
#N canvas 0 50 450 250 (subpatch) 0;
#X array audioData21 240014 float 2;
#X coords 0 1 240014 -1 200 140 1 0 0;
#X restore 1057 1402 graph;
#X obj 1306 1312 readSample;
#X obj 1306 1363 soundfiler;
#N canvas 0 50 450 250 (subpatch) 0;
#X array audioData22 240018 float 2;
#X coords 0 1 240018 -1 200 140 1 0 0;
#X restore 1304 1401 graph;
#X obj 1554 1311 readSample;
#X obj 1554 1362 soundfiler;
#N canvas 0 50 450 250 (subpatch) 0;
#X array audioData23 240005 float 2;
#X coords 0 1 240005 -1 200 140 1 0 0;
#X restore 1552 1400 graph;
#X obj 1802 1310 readSample;
#X obj 1802 1361 soundfiler;
#N canvas 0 50 450 250 (subpatch) 0;
#X array audioData24 240013 float 2;
#X coords 0 1 240013 -1 200 140 1 0 0;
#X restore 1800 1399 graph;
#X msg 53 1291 DefaultPad_XShortLength_E_Scale-17;
#X obj 53 1553 tabplay~ audioData17, f 17;
#X obj 53 1265 r bang_17;
#X obj 314 1264 r bang_18;
#X msg 314 1290 DefaultPad_XShortLength_E_Scale-18;
#X obj 315 1550 tabplay~ audioData18, f 17;
#X obj 563 1264 r bang_19;
#X msg 563 1289 DefaultPad_XShortLength_E_Scale-19;
#X obj 564 1548 tabplay~ audioData19, f 17;
#X obj 813 1262 r bang_20;
#X msg 813 1288 DefaultPad_XShortLength_E_Scale-20;
#X obj 814 1548 tabplay~ audioData20, f 17;
#X msg 1059 1287 DefaultPad_XShortLength_E_Scale-21;
#X obj 1060 1546 tabplay~ audioData21, f 17;
#X msg 1306 1286 DefaultPad_XShortLength_E_Scale-22;
#X obj 1059 1262 r bang_21;
#X obj 1306 1259 r bang_22;
#X obj 1307 1545 tabplay~ audioData22, f 17;
#X obj 1554 1259 r bang_23;
#X msg 1554 1285 DefaultPad_XShortLength_E_Scale-23;
#X obj 1555 1545 tabplay~ audioData23, f 17;
#X obj 1802 1258 r bang_24;
#X msg 1802 1284 DefaultPad_XShortLength_E_Scale-24;
#X obj 1803 1544 tabplay~ audioData24, f 17;
#N canvas 0 50 450 250 (subpatch) 0;
#X array audioData25 240026 float 2;
#X coords 0 1 240026 -1 200 140 1 0 0;
#X restore 55 2007 graph;
#X obj 203 2167 bng 19 250 50 0 empty empty empty 0 -10 0 12 #fcfcfc #000000 #000000;
#X obj 55 1918 readSample;
#X obj 55 1969 soundfiler;
#X obj 316 1917 readSample;
#X obj 316 1968 soundfiler;
#N canvas 0 50 450 250 (subpatch) 0;
#X array audioData26 239993 float 2;
#X coords 0 1 239993 -1 200 140 1 0 0;
#X restore 314 2006 graph;
#X obj 565 1916 readSample;
#X obj 565 1967 soundfiler;
#N canvas 0 50 450 250 (subpatch) 0;
#X array audioData27 240027 float 2;
#X coords 0 1 240027 -1 200 140 1 0 0;
#X restore 563 2005 graph;
#X obj 815 1915 readSample;
#X obj 815 1966 soundfiler;
#N canvas 0 50 450 250 (subpatch) 0;
#X array audioData28 239995 float 2;
#X coords 0 1 239995 -1 200 140 1 0 0;
#X restore 813 2004 graph;
#X obj 55 1866 r bang_25;
#X msg 55 1892 DefaultPad_XShortLength_E_Scale-25;
#X obj 55 2154 tabplay~ audioData25, f 17;
#X obj 316 1865 r bang_26;
#X msg 316 1891 DefaultPad_XShortLength_E_Scale-26;
#X obj 317 2151 tabplay~ audioData26, f 17;
#X obj 565 1865 r bang_27;
#X msg 565 1890 DefaultPad_XShortLength_E_Scale-27;
#X obj 566 2149 tabplay~ audioData27, f 17;
#X obj 815 1863 r bang_28;
#X msg 815 1889 DefaultPad_XShortLength_E_Scale-28;
#X obj 816 2149 tabplay~ audioData28, f 17;
#N canvas 0 50 450 250 (subpatch) 0;
#X array audioData29 240026 float 2;
#X coords 0 1 240026 -1 200 140 1 0 0;
#X restore 1058 2002 graph;
#X obj 1206 2162 bng 19 250 50 0 empty empty empty 0 -10 0 12 #fcfcfc #000000 #000000;
#X obj 1058 1913 readSample;
#X obj 1058 1964 soundfiler;
#X obj 1319 1912 readSample;
#X obj 1319 1963 soundfiler;
#N canvas 0 50 450 250 (subpatch) 0;
#X array audioData30 239993 float 2;
#X coords 0 1 239993 -1 200 140 1 0 0;
#X restore 1317 2001 graph;
#X obj 1568 1911 readSample;
#X obj 1568 1962 soundfiler;
#N canvas 0 50 450 250 (subpatch) 0;
#X array audioData31 240027 float 2;
#X coords 0 1 240027 -1 200 140 1 0 0;
#X restore 1566 2000 graph;
#X obj 1818 1910 readSample;
#X obj 1818 1961 soundfiler;
#N canvas 0 50 450 250 (subpatch) 0;
#X array audioData32 239995 float 2;
#X coords 0 1 239995 -1 200 140 1 0 0;
#X restore 1816 1999 graph;
#X obj 1058 1861 r bang_29;
#X msg 1058 1887 DefaultPad_XShortLength_E_Scale-29;
#X obj 1058 2149 tabplay~ audioData29, f 17;
#X obj 1319 1860 r bang_30;
#X msg 1319 1886 DefaultPad_XShortLength_E_Scale-30;
#X obj 1320 2145 tabplay~ audioData30, f 17;
#X obj 1568 1860 r bang_31;
#X msg 1568 1885 DefaultPad_XShortLength_E_Scale-31;
#X obj 1569 2144 tabplay~ audioData31, f 17;
#X obj 1818 1858 r bang_32;
#X msg 1818 1884 DefaultPad_XShortLength_E_Scale-32;
#X obj 1819 2144 tabplay~ audioData32, f 17;
#N canvas 0 50 450 250 (subpatch) 0;
#X array audioData33 96000 float 2;
#X coords 0 1 96000 -1 200 140 1 0 0;
#X restore 56 2740 graph;
#X obj 204 2900 bng 19 250 50 0 empty empty empty 0 -10 0 12 #fcfcfc #000000 #000000;
#X obj 56 2651 readSample;
#X obj 56 2702 soundfiler;
#X obj 317 2650 readSample;
#X obj 317 2701 soundfiler;
#N canvas 0 50 450 250 (subpatch) 0;
#X array audioData34 96000 float 2;
#X coords 0 1 96000 -1 200 140 1 0 0;
#X restore 315 2739 graph;
#X obj 566 2649 readSample;
#X obj 566 2700 soundfiler;
#N canvas 0 50 450 250 (subpatch) 0;
#X array audioData35 96000 float 2;
#X coords 0 1 96000 -1 200 140 1 0 0;
#X restore 564 2738 graph;
#X obj 56 2599 r bang_33;
#X msg 56 2625 DefaultPad_XShortLength_E_Scale-33;
#X obj 56 2887 tabplay~ audioData33, f 17;
#X obj 317 2598 r bang_34;
#X msg 317 2624 DefaultPad_XShortLength_E_Scale-34;
#X obj 318 2884 tabplay~ audioData34, f 17;
#X obj 566 2598 r bang_35;
#X msg 566 2623 DefaultPad_XShortLength_E_Scale-35;
#X obj 567 2882 tabplay~ audioData35, f 17;
#X obj 523 2892 bng 19 250 50 0 empty empty empty 0 -10 0 12 #fcfcfc #000000 #000000;
#N canvas 0 50 450 250 (subpatch) 0;
#X array audioData1_2 96000 float 2;
#X coords 0 1 96000 -1 200 140 1 0 0;
#X restore 49 432 graph;
#X obj 197 592 bng 19 250 50 0 empty empty empty 0 -10 0 12 #fcfcfc #000000 #000000;
#N canvas 0 50 450 250 (subpatch) 0;
#X array audioData2_2 100 float 3;
#A 0 0 0 0 0 0 0 0 0 0 0 0 0 0 0 0 0 0 0 0 0 0 0 0 0 0 0 0 0 0 0 0 0 0 0 0 0 0 0 0 0 0 0 0 0 0 0 0 0 0 0 0 0 0 0 0 0 0 0 0 0 0 0 0 0 0 0 0 0 0 0 0 0 0 0 0 0 0 0 0 0 0 0 0 0 0 0 0 0 0 0 0 0 0 0 0 0 0 0 0 0;
#X coords 0 1 100 -1 200 140 1 0 0;
#X restore 308 431 graph;
#N canvas 0 50 450 250 (subpatch) 0;
#X array audioData3_2 100 float 3;
#A 0 0 0 0 0 0 0 0 0 0 0 0 0 0 0 0 0 0 0 0 0 0 0 0 0 0 0 0 0 0 0 0 0 0 0 0 0 0 0 0 0 0 0 0 0 0 0 0 0 0 0 0 0 0 0 0 0 0 0 0 0 0 0 0 0 0 0 0 0 0 0 0 0 0 0 0 0 0 0 0 0 0 0 0 0 0 0 0 0 0 0 0 0 0 0 0 0 0 0 0 0;
#X coords 0 1 100 -1 200 140 1 0 0;
#X restore 557 430 graph;
#N canvas 0 50 450 250 (subpatch) 0;
#X array audioData4_2 72000 float 2;
#X coords 0 1 72000 -1 200 140 1 0 0;
#X restore 807 429 graph;
#N canvas 0 50 450 250 (subpatch) 0;
#X array audioData5_2 72000 float 2;
#X coords 0 1 72000 -1 200 140 1 0 0;
#X restore 1053 428 graph;
#N canvas 0 50 450 250 (subpatch) 0;
#X array audioData6_2 239988 float 2;
#X coords 0 1 239988 -1 200 140 1 0 0;
#X restore 1300 427 graph;
#N canvas 0 50 450 250 (subpatch) 0;
#X array audioData7_2 240028 float 2;
#X coords 0 1 240028 -1 200 140 1 0 0;
#X restore 1548 426 graph;
#N canvas 0 50 450 250 (subpatch) 0;
#X array audioData8_2 239991 float 2;
#X coords 0 1 239991 -1 200 140 1 0 0;
#X restore 1796 425 graph;
#X obj 49 580 tabplay~ audioData1_2, f 17;
#X obj 311 576 tabplay~ audioData2_2, f 17;
#X obj 560 575 tabplay~ audioData3_2, f 17;
#X obj 810 574 tabplay~ audioData4_2, f 17;
#X obj 1056 573 tabplay~ audioData5_2, f 17;
#X obj 1303 572 tabplay~ audioData6_2, f 17;
#X obj 1551 571 tabplay~ audioData7_2, f 17;
#X obj 1799 570 tabplay~ audioData8_2, f 17;
#X msg 50 166 read -resize \$1 audioData1 audioData1_2;
#X msg 311 165 read -resize \$1 audioData2 audioData2_2;
#X msg 560 164 read -resize \$1 audioData3 audioData3_2;
#X msg 810 163 read -resize \$1 audioData4 audioData4_2;
#X msg 1056 162 read -resize \$1 audioData5 audioData5_2;
#X msg 1303 161 read -resize \$1 audioData6 audioData6_2;
#X msg 1551 160 read -resize \$1 audioData7 audioData7_2;
#X msg 1799 158 read -resize \$1 audioData8 audioData8_2;
#N canvas 0 50 450 250 (subpatch) 0;
#X array audioData9_2 72000 float 2;
#X coords 0 1 72000 -1 200 140 1 0 0;
#X restore 49 1020 graph;
#X obj 197 1180 bng 19 250 50 0 empty empty empty 0 -10 0 12 #fcfcfc #000000 #000000;
#N canvas 0 50 450 250 (subpatch) 0;
#X array audioData10_2 72000 float 2;
#X coords 0 1 72000 -1 200 140 1 0 0;
#X restore 308 1019 graph;
#N canvas 0 50 450 250 (subpatch) 0;
#X array audioData11_2 240027 float 2;
#X coords 0 1 240027 -1 200 140 1 0 0;
#X restore 557 1018 graph;
#N canvas 0 50 450 250 (subpatch) 0;
#X array audioData12_2 239995 float 2;
#X coords 0 1 239995 -1 200 140 1 0 0;
#X restore 807 1017 graph;
#N canvas 0 50 450 250 (subpatch) 0;
#X array audioData13_2 240014 float 2;
#X coords 0 1 240014 -1 200 140 1 0 0;
#X restore 1053 1016 graph;
#N canvas 0 50 450 250 (subpatch) 0;
#X array audioData14_2 240018 float 2;
#X coords 0 1 240018 -1 200 140 1 0 0;
#X restore 1300 1015 graph;
#N canvas 0 50 450 250 (subpatch) 0;
#X array audioData15_2 240005 float 2;
#X coords 0 1 240005 -1 200 140 1 0 0;
#X restore 1548 1014 graph;
#N canvas 0 50 450 250 (subpatch) 0;
#X array audioData16_2 240013 float 2;
#X coords 0 1 240013 -1 200 140 1 0 0;
#X restore 1796 1013 graph;
#X obj 49 1167 tabplay~ audioData9_2, f 17;
#X obj 311 1164 tabplay~ audioData10_2, f 17;
#X obj 560 1162 tabplay~ audioData11_2, f 17;
#X obj 810 1162 tabplay~ audioData11_2, f 17;
#X obj 1056 1161 tabplay~ audioData13_2, f 17;
#X obj 1303 1160 tabplay~ audioData14_2, f 17;
#X obj 1551 1159 tabplay~ audioData15_2, f 17;
#X obj 1799 1158 tabplay~ audioData16_2, f 17;
#X msg 51 759 read -resize \$1 audioData9 audioData9_2;
#X msg 312 758 read -resize \$1 audioData10 audioData10_2;
#X msg 561 757 read -resize \$1 audioData11 audioData11_2;
#X msg 811 756 read -resize \$1 audioData12 audioData12_2;
#X msg 1057 755 read -resize \$1 audioData13 audioData14_2;
#X msg 1552 753 read -resize \$1 audioData15 audioData15_2;
#X msg 1800 750 read -resize \$1 audioData16 audioData16_2;
#N canvas 0 50 450 250 (subpatch) 0;
#X array audioData17_2 72000 float 2;
#X coords 0 1 72000 -1 200 140 1 0 0;
#X restore 53 1610 graph;
#N canvas 0 50 450 250 (subpatch) 0;
#X array audioData18_2 239993 float 2;
#X coords 0 1 239993 -1 200 140 1 0 0;
#X restore 312 1609 graph;
#N canvas 0 50 450 250 (subpatch) 0;
#X array audioData19_2 240027 float 2;
#X coords 0 1 240027 -1 200 140 1 0 0;
#X restore 561 1608 graph;
#N canvas 0 50 450 250 (subpatch) 0;
#X array audioData20_2 239995 float 2;
#X coords 0 1 239995 -1 200 140 1 0 0;
#X restore 811 1607 graph;
#N canvas 0 50 450 250 (subpatch) 0;
#X array audioData21_2 240014 float 2;
#X coords 0 1 240014 -1 200 140 1 0 0;
#X restore 1057 1606 graph;
#N canvas 0 50 450 250 (subpatch) 0;
#X array audioData22_2 240018 float 2;
#X coords 0 1 240018 -1 200 140 1 0 0;
#X restore 1304 1605 graph;
#N canvas 0 50 450 250 (subpatch) 0;
#X array audioData23_2 240005 float 2;
#X coords 0 1 240005 -1 200 140 1 0 0;
#X restore 1552 1604 graph;
#N canvas 0 50 450 250 (subpatch) 0;
#X array audioData24_2 240013 float 2;
#X coords 0 1 240013 -1 200 140 1 0 0;
#X restore 1800 1603 graph;
#X obj 53 1757 tabplay~ audioData17_2, f 17;
#X obj 316 1754 tabplay~ audioData18_2, f 17;
#X obj 564 1752 tabplay~ audioData19_2, f 17;
#X obj 814 1752 tabplay~ audioData20_2, f 17;
#X obj 1060 1750 tabplay~ audioData21_2, f 17;
#X obj 1307 1749 tabplay~ audioData22_2, f 17;
#X obj 1555 1749 tabplay~ audioData23_2, f 17;
#X obj 1803 1748 tabplay~ audioData24_2, f 17;
#X msg 53 1343 read -resize \$1 audioData17 audioData17_2;
#X msg 314 1342 read -resize \$1 audioData18 audioData1_2;
#X msg 563 1341 read -resize \$1 audioData19 audioData19_2;
#X msg 813 1340 read -resize \$1 audioData20 audioData20_2;
#X msg 1306 1338 read -resize \$1 audioData22 audioData22_2;
#X msg 1554 1337 read -resize \$1 audioData23 audioData23_2;
#X msg 1802 1334 read -resize \$1 audioData24 audioData24_2;
#N canvas 0 50 450 250 (subpatch) 0;
#X array audioData25_2 240026 float 2;
#X coords 0 1 240026 -1 200 140 1 0 0;
#X restore 56 2207 graph;
#X obj 204 2367 bng 19 250 50 0 empty empty empty 0 -10 0 12 #fcfcfc #000000 #000000;
#N canvas 0 50 450 250 (subpatch) 0;
#X array audioData26_2 239993 float 2;
#X coords 0 1 239993 -1 200 140 1 0 0;
#X restore 315 2206 graph;
#N canvas 0 50 450 250 (subpatch) 0;
#X array audioData27_2 240027 float 2;
#X coords 0 1 240027 -1 200 140 1 0 0;
#X restore 564 2205 graph;
#N canvas 0 50 450 250 (subpatch) 0;
#X array audioData28_2 239995 float 2;
#X coords 0 1 239995 -1 200 140 1 0 0;
#X restore 814 2204 graph;
#N canvas 0 50 450 250 (subpatch) 0;
#X array audioData29_2 240026 float 2;
#X coords 0 1 240026 -1 200 140 1 0 0;
#X restore 1059 2202 graph;
#X obj 1207 2362 bng 19 250 50 0 empty empty empty 0 -10 0 12 #fcfcfc #000000 #000000;
#N canvas 0 50 450 250 (subpatch) 0;
#X array audioData30_2 239993 float 2;
#X coords 0 1 239993 -1 200 140 1 0 0;
#X restore 1318 2201 graph;
#N canvas 0 50 450 250 (subpatch) 0;
#X array audioData31_2 240027 float 2;
#X coords 0 1 240027 -1 200 140 1 0 0;
#X restore 1567 2200 graph;
#N canvas 0 50 450 250 (subpatch) 0;
#X array audioData32_2 239995 float 2;
#X coords 0 1 239995 -1 200 140 1 0 0;
#X restore 1817 2199 graph;
#X obj 56 2354 tabplay~ audioData25_2, f 17;
#X obj 319 2351 tabplay~ audioData26_2, f 17;
#X obj 567 2349 tabplay~ audioData27_2, f 17;
#X obj 817 2349 tabplay~ audioData28_2, f 17;
#X obj 1059 2349 tabplay~ audioData29_2, f 17;
#X obj 1321 2345 tabplay~ audioData30_2, f 17;
#X obj 1570 2344 tabplay~ audioData31_2, f 17;
#X obj 1821 2344 tabplay~ audioData32_2, f 17;
#X msg 55 1944 read -resize \$1 audioData25 audioData25_2;
#X msg 316 1943 read -resize \$1 audioData26 audioData26_2;
#X msg 565 1942 read -resize \$1 audioData27 audioData27_2;
#X msg 815 1941 read -resize \$1 audioData28 audioData28_2;
#X msg 1058 1939 read -resize \$1 audioData29 audioData29_2;
#X msg 1319 1938 read -resize \$1 audioData30 audioData30_2;
#X msg 1818 1936 read -resize \$1 audioData32 audioData32_2;
#X msg 1568 1937 read -resize \$1 audioData31 audioData31_2;
#N canvas 0 50 450 250 (subpatch) 0;
#X array audioData33_2 96000 float 2;
#X coords 0 1 96000 -1 200 140 1 0 0;
#X restore 58 2942 graph;
#X obj 206 3102 bng 19 250 50 0 empty empty empty 0 -10 0 12 #fcfcfc #000000 #000000;
#N canvas 0 50 450 250 (subpatch) 0;
#X array audioData34_2 96000 float 2;
#X coords 0 1 96000 -1 200 140 1 0 0;
#X restore 317 2941 graph;
#N canvas 0 50 450 250 (subpatch) 0;
#X array audioData35_2 96000 float 2;
#X coords 0 1 96000 -1 200 140 1 0 0;
#X restore 566 2940 graph;
#X obj 525 3094 bng 19 250 50 0 empty empty empty 0 -10 0 12 #fcfcfc #000000 #000000;
#X obj 59 3089 tabplay~ audioData33_2, f 17;
#X obj 320 3086 tabplay~ audioData34_2, f 17;
#X obj 569 3084 tabplay~ audioData35_2, f 17;
#X msg 56 2677 read -resize \$1 audioData33 audioData33_2;
#X msg 317 2676 read -resize \$1 audioData34 audioData34_2;
#X msg 566 2675 read -resize \$1 audioData35 audioData35_2;
#X msg 1059 1339 read -resize \$1 audioData21 audioData21_2;
#X obj 1012 3153 *~ 0.3;
#X obj 1075 3152 *~ 0.3;
#X obj 1104 3234 *~ 1;
#X obj 1145 3233 *~ 1;
#X obj 1112 3198 rev3~ 100 90 3000 20;
#X obj 1191 3264 r reverb_amount;
#X obj 1126 3103 r reverb_output;
#X obj 1162 3127 r reverb_liveliness;
#X obj 1197 3151 r reverb_crossover_freq;
#X obj 1248 3175 r reverb_high_freq_damping;
#X obj 773 3208 delwrite~ delayLeft 4000;
#X obj 788 3233 delwrite~ delayRight 4000;
#X obj 774 3336 *~;
#X obj 847 3338 *~;
#X obj 718 3380 send~ feedback1;
#X obj 842 3380 send~ feedback2;
#X obj 869 3311 r delay_feedback_amount;
#X obj 685 3151 receive~ feedback1;
#X obj 839 3152 receive~ feedback2;
#X obj 759 3260 delread~ delayLeft 177;
#X obj 847 3283 delread~ delayRight 203;
#X obj 1312 3033 r polyrhythm_volume;
#X connect 3 0 330 0;
#X connect 4 0 3 0;
#X connect 4 0 9 0;
#X connect 5 0 237 0;
#X connect 7 0 238 0;
#X connect 9 0 330 0;
#X connect 11 0 5 0;
#X connect 12 0 239 0;
#X connect 15 0 7 0;
#X connect 16 0 12 0;
#X connect 17 0 330 0;
#X connect 18 0 240 0;
#X connect 21 0 18 0;
#X connect 22 0 330 0;
#X connect 23 0 241 0;
#X connect 26 0 23 0;
#X connect 27 0 242 0;
#X connect 30 0 27 0;
#X connect 31 0 330 0;
#X connect 32 0 243 0;
#X connect 35 0 32 0;
#X connect 36 0 330 0;
#X connect 37 0 244 0;
#X connect 40 0 37 0;
#X connect 41 0 330 0;
#X connect 43 0 69 0;
#X connect 43 0 83 0;
#X connect 44 0 262 0;
#X connect 46 0 263 0;
#X connect 49 0 264 0;
#X connect 52 0 265 0;
#X connect 55 0 266 0;
#X connect 58 0 77 0;
#X connect 61 0 267 0;
#X connect 64 0 268 0;
#X connect 67 0 44 0;
#X connect 68 0 46 0;
#X connect 69 0 330 0;
#X connect 70 0 49 0;
#X connect 71 0 330 0;
#X connect 72 0 52 0;
#X connect 73 0 330 0;
#X connect 74 0 55 0;
#X connect 75 0 330 0;
#X connect 76 0 58 0;
#X connect 77 0 59 0;
#X connect 78 0 330 0;
#X connect 79 0 61 0;
#X connect 80 0 330 0;
#X connect 81 0 64 0;
#X connect 82 0 330 0;
#X connect 83 0 330 0;
#X connect 84 0 11 0;
#X connect 84 0 3 0;
#X connect 84 0 229 0;
#X connect 85 0 15 0;
#X connect 85 0 9 0;
#X connect 85 0 230 0;
#X connect 86 0 16 0;
#X connect 86 0 17 0;
#X connect 86 0 231 0;
#X connect 87 0 21 0;
#X connect 87 0 22 0;
#X connect 87 0 232 0;
#X connect 88 0 26 0;
#X connect 88 0 100 0;
#X connect 88 0 233 0;
#X connect 89 0 30 0;
#X connect 89 0 31 0;
#X connect 89 0 234 0;
#X connect 90 0 35 0;
#X connect 90 0 36 0;
#X connect 90 0 235 0;
#X connect 91 0 40 0;
#X connect 91 0 41 0;
#X connect 91 0 236 0;
#X connect 92 0 83 0;
#X connect 92 0 254 0;
#X connect 93 0 68 0;
#X connect 93 0 69 0;
#X connect 93 0 255 0;
#X connect 94 0 70 0;
#X connect 94 0 71 0;
#X connect 94 0 256 0;
#X connect 95 0 72 0;
#X connect 95 0 73 0;
#X connect 95 0 257 0;
#X connect 96 0 74 0;
#X connect 96 0 75 0;
#X connect 96 0 258 0;
#X connect 97 0 76 0;
#X connect 97 0 78 0;
#X connect 97 0 259 0;
#X connect 98 0 79 0;
#X connect 98 0 80 0;
#X connect 98 0 260 0;
#X connect 99 0 81 0;
#X connect 99 0 82 0;
#X connect 99 0 261 0;
#X connect 100 0 330 0;
#X connect 102 0 127 0;
#X connect 102 0 131 0;
#X connect 103 0 285 0;
#X connect 105 0 286 0;
#X connect 108 0 287 0;
#X connect 111 0 288 0;
#X connect 114 0 329 0;
#X connect 117 0 289 0;
#X connect 120 0 290 0;
#X connect 123 0 291 0;
#X connect 126 0 103 0;
#X connect 127 0 330 0;
#X connect 128 0 126 0;
#X connect 128 0 127 0;
#X connect 128 0 277 0;
#X connect 129 0 130 0;
#X connect 129 0 131 0;
#X connect 129 0 278 0;
#X connect 130 0 105 0;
#X connect 131 0 330 0;
#X connect 132 0 133 0;
#X connect 132 0 134 0;
#X connect 132 0 279 0;
#X connect 133 0 108 0;
#X connect 134 0 330 0;
#X connect 135 0 136 0;
#X connect 135 0 137 0;
#X connect 135 0 280 0;
#X connect 136 0 111 0;
#X connect 137 0 330 0;
#X connect 138 0 114 0;
#X connect 139 0 330 0;
#X connect 140 0 117 0;
#X connect 141 0 138 0;
#X connect 141 0 139 0;
#X connect 141 0 281 0;
#X connect 142 0 140 0;
#X connect 142 0 143 0;
#X connect 142 0 282 0;
#X connect 143 0 330 0;
#X connect 144 0 145 0;
#X connect 144 0 146 0;
#X connect 144 0 283 0;
#X connect 145 0 120 0;
#X connect 146 0 330 0;
#X connect 147 0 148 0;
#X connect 147 0 149 0;
#X connect 147 0 284 0;
#X connect 148 0 123 0;
#X connect 149 0 330 0;
#X connect 151 0 165 0;
#X connect 151 0 168 0;
#X connect 152 0 310 0;
#X connect 154 0 311 0;
#X connect 157 0 312 0;
#X connect 160 0 313 0;
#X connect 163 0 164 0;
#X connect 163 0 165 0;
#X connect 163 0 302 0;
#X connect 164 0 152 0;
#X connect 165 0 330 0;
#X connect 166 0 167 0;
#X connect 166 0 168 0;
#X connect 166 0 303 0;
#X connect 167 0 154 0;
#X connect 168 0 330 0;
#X connect 169 0 170 0;
#X connect 169 0 171 0;
#X connect 169 0 304 0;
#X connect 170 0 157 0;
#X connect 171 0 330 0;
#X connect 172 0 173 0;
#X connect 172 0 174 0;
#X connect 172 0 305 0;
#X connect 173 0 160 0;
#X connect 174 0 330 0;
#X connect 176 0 190 0;
#X connect 176 0 193 0;
#X connect 177 0 314 0;
#X connect 179 0 315 0;
#X connect 182 0 317 0;
#X connect 185 0 316 0;
#X connect 188 0 189 0;
#X connect 188 0 190 0;
#X connect 188 0 306 0;
#X connect 189 0 177 0;
#X connect 190 0 330 0;
#X connect 191 0 192 0;
#X connect 191 0 193 0;
#X connect 191 0 307 0;
#X connect 192 0 179 0;
#X connect 193 0 330 0;
#X connect 194 0 195 0;
#X connect 194 0 196 0;
#X connect 194 0 308 0;
#X connect 195 0 182 0;
#X connect 196 0 330 0;
#X connect 197 0 198 0;
#X connect 197 0 199 0;
#X connect 197 0 309 0;
#X connect 198 0 185 0;
#X connect 199 0 330 0;
#X connect 201 0 212 0;
#X connect 201 0 215 0;
#X connect 202 0 326 0;
#X connect 204 0 327 0;
#X connect 207 0 328 0;
#X connect 210 0 211 0;
#X connect 210 0 212 0;
#X connect 210 0 323 0;
#X connect 211 0 202 0;
#X connect 212 0 330 0;
#X connect 213 0 214 0;
#X connect 213 0 215 0;
#X connect 213 0 324 0;
#X connect 214 0 204 0;
#X connect 215 0 330 0;
#X connect 216 0 217 0;
#X connect 216 0 218 0;
#X connect 216 0 325 0;
#X connect 217 0 207 0;
#X connect 218 0 330 0;
#X connect 219 0 218 0;
#X connect 221 0 229 0;
#X connect 221 0 230 0;
#X connect 229 0 331 0;
#X connect 230 0 331 0;
#X connect 231 0 331 0;
#X connect 232 0 331 0;
#X connect 233 0 331 0;
#X connect 234 0 331 0;
#X connect 235 0 331 0;
#X connect 236 0 331 0;
#X connect 237 0 6 0;
#X connect 238 0 8 0;
#X connect 239 0 13 0;
#X connect 240 0 19 0;
#X connect 241 0 24 0;
#X connect 242 0 28 0;
#X connect 243 0 33 0;
#X connect 244 0 38 0;
#X connect 246 0 254 0;
#X connect 246 0 255 0;
#X connect 254 0 331 0;
#X connect 255 0 331 0;
#X connect 256 0 331 0;
#X connect 257 0 331 0;
#X connect 258 0 331 0;
#X connect 259 0 331 0;
#X connect 260 0 331 0;
#X connect 261 0 331 0;
#X connect 262 0 45 0;
#X connect 263 0 47 0;
#X connect 264 0 50 0;
#X connect 265 0 53 0;
#X connect 266 0 56 0;
#X connect 267 0 62 0;
#X connect 268 0 65 0;
#X connect 277 0 331 0;
#X connect 278 0 331 0;
#X connect 279 0 331 0;
#X connect 280 0 331 0;
#X connect 281 0 331 0;
#X connect 282 0 331 0;
#X connect 283 0 331 0;
#X connect 284 0 331 0;
#X connect 285 0 104 0;
#X connect 286 0 106 0;
#X connect 287 0 109 0;
#X connect 288 0 112 0;
#X connect 289 0 118 0;
#X connect 290 0 121 0;
#X connect 291 0 124 0;
#X connect 293 0 302 0;
#X connect 293 0 303 0;
#X connect 298 0 306 0;
#X connect 298 0 307 0;
#X connect 302 0 331 0;
#X connect 303 0 331 0;
#X connect 304 0 331 0;
#X connect 305 0 331 0;
#X connect 306 0 331 0;
#X connect 307 0 331 0;
#X connect 308 0 331 0;
#X connect 309 0 331 0;
#X connect 310 0 153 0;
#X connect 311 0 155 0;
#X connect 312 0 158 0;
#X connect 313 0 161 0;
#X connect 314 0 178 0;
#X connect 315 0 180 0;
#X connect 316 0 186 0;
#X connect 317 0 183 0;
#X connect 319 0 323 0;
#X connect 319 0 324 0;
#X connect 322 0 325 0;
#X connect 323 0 331 0;
#X connect 324 0 331 0;
#X connect 325 0 331 0;
#X connect 326 0 203 0;
#X connect 327 0 205 0;
#X connect 328 0 208 0;
#X connect 329 0 115 0;
#X connect 330 0 334 0;
#X connect 330 0 2 0;
#X connect 330 0 340 0;
#X connect 331 0 334 1;
#X connect 331 0 2 1;
#X connect 331 0 341 0;
#X connect 334 0 332 0;
#X connect 334 0 2 0;
#X connect 334 1 333 0;
#X connect 334 1 2 1;
#X connect 335 0 333 1;
#X connect 335 0 332 1;
#X connect 336 0 334 2;
#X connect 337 0 334 3;
#X connect 338 0 334 4;
#X connect 339 0 334 5;
#X connect 342 0 2 0;
#X connect 342 0 344 0;
#X connect 343 0 2 1;
#X connect 343 0 345 0;
#X connect 346 0 343 1;
#X connect 346 0 342 1;
#X connect 347 0 340 0;
#X connect 348 0 341 0;
#X connect 349 0 342 0;
#X connect 350 0 343 0;
#X connect 351 0 330 1;
#X connect 351 0 331 1;
