#N canvas 64 64 1291 1225 12;
#X declare -path Abstractions;
#X obj 111 130 soundfiler;
#X obj 229 583 dac~;
#X obj 491 278 bng 19 250 50 0 empty empty empty 0 -10 0 12 #fcfcfc #000000 #000000;
#N canvas 0 50 450 250 (subpatch) 0;
#X array audioData34 96000 float 2;
#X coords 0 1 96000 -1 200 140 1;
#X restore 110 169 graph;
#X obj 42 18 declare -path Abstractions;
#X obj 111 80 readSample;
#N canvas 0 50 450 250 (subpatch) 0;
#X array audioData34_2 96000 float 2;
#X coords 0 1 96000 -1 200 140 1 0 0;
#X restore 331 325 graph;
#X msg 111 105 read -resize \$1 audioData34 audioData34_2;
#X obj 77 366 tabplay~ audioData34;
#X obj 121 397 tabplay~ audioData34_2;
#X msg 111 53 DefaultPad_XShortLength_E_Scale-35;
#X connect 2 0 10 0;
#X connect 2 0 8 0;
#X connect 2 0 9 0;
#X connect 5 0 7 0;
#X connect 7 0 0 0;
#X connect 8 0 1 0;
#X connect 9 0 1 1;
#X connect 10 0 5 0;
